<svg xmlns="http://www.w3.org/2000/svg" viewBox="0 0 8.99 16.61"><defs><style>.cls-1{fill:#231f20;}.cls-2{fill:#fff;}</style></defs><title>Untitled-3</title><g id="Layer_2" data-name="Layer 2"><polygon class="cls-1" points="0.73 1.41 1.43 1.41 1.43 0.71 0.73 0.71 0.73 0 0 0 0 12.37 0.73 12.37 0.73 11.71 1.43 11.71 1.43 11 0.73 11 0.73 1.41"/><rect class="cls-1" x="1.43" y="1.41" width="0.7" height="0.7"/><rect class="cls-1" x="2.13" y="2.11" width="0.7" height="0.7"/><rect class="cls-1" x="2.84" y="2.81" width="0.7" height="0.7"/><rect class="cls-1" x="3.54" y="3.52" width="0.7" height="0.7"/><rect class="cls-1" x="4.24" y="4.22" width="0.7" height="0.7"/><rect class="cls-1" x="4.94" y="4.92" width="0.7" height="0.7"/><rect class="cls-1" x="5.64" y="5.62" width="0.7" height="0.7"/><rect class="cls-1" x="6.34" y="6.32" width="0.7" height="0.7"/><rect class="cls-1" x="7.04" y="7.02" width="0.7" height="0.7"/><rect class="cls-1" x="1.43" y="10.3" width="0.7" height="0.7"/><rect class="cls-1" x="2.13" y="9.6" width="0.7" height="0.7"/><rect class="cls-1" x="2.84" y="8.9" width="0.7" height="0.7"/><rect class="cls-1" x="7.04" y="15.91" width="0.7" height="0.7"/><polygon class="cls-1" points="7.74 15.21 7.74 15.91 8.44 15.91 8.44 15.43 8.99 15.43 8.99 14.03 8.29 14.03 8.29 15.21 7.74 15.21"/><rect class="cls-1" x="6.34" y="15.21" width="0.7" height="0.7"/><rect class="cls-1" x="3.54" y="9.6" width="0.7" height="1.4"/><rect class="cls-1" x="4.24" y="11" width="0.7" height="1.4"/><rect class="cls-1" x="4.94" y="12.41" width="0.7" height="1.4"/><rect class="cls-1" x="5.64" y="13.81" width="0.7" height="1.4"/><rect class="cls-1" x="6.19" y="9.83" width="0.7" height="1.4"/><rect class="cls-1" x="6.89" y="11.23" width="0.7" height="1.4"/><rect class="cls-1" x="7.59" y="12.63" width="0.7" height="1.4"/><polygon class="cls-1" points="8.99 9.12 8.99 8.42 8.44 8.42 8.44 7.72 7.74 7.72 7.74 8.42 5.49 8.42 5.49 9.12 5.49 9.82 6.19 9.82 6.19 9.12 8.99 9.12"/><polygon class="cls-2" points="0.72 1.41 0.72 11 1.43 11 1.43 10.3 2.13 10.3 2.13 9.6 2.84 9.6 2.84 8.9 3.54 8.9 3.54 9.6 4.24 9.6 4.24 11 4.94 11 4.94 12.41 5.64 12.41 5.64 13.81 6.34 13.81 6.34 15.21 7.04 15.21 7.04 15.91 7.74 15.91 7.74 15.21 8.29 15.21 8.29 14.03 7.59 14.03 7.59 12.63 6.89 12.63 6.89 11.23 6.19 11.23 6.19 9.82 5.49 9.82 5.49 8.42 7.74 8.42 7.74 7.72 7.04 7.72 7.04 7.02 6.34 7.02 6.34 6.32 5.64 6.32 5.64 5.62 4.94 5.62 4.94 4.92 4.24 4.92 4.24 4.22 3.54 4.22 3.54 3.52 2.84 3.52 2.84 2.81 2.13 2.81 2.13 2.11 1.43 2.11 1.43 1.41 0.72 1.41"/></g></svg>